<?xml version="1.0" encoding="UTF-8"?><svg version="1.1" width="56px" height="56px" viewBox="0 0 56.0 56.0" xmlns="http://www.w3.org/2000/svg" xmlns:xlink="http://www.w3.org/1999/xlink"><defs><clipPath id="i0"><path d="M691,0 L691,135 L0,135 L0,0 L691,0 Z"></path></clipPath><clipPath id="i1"><path d="M2.60866848,0 C4.05325372,0 5.21733696,1.16409536 5.21733696,2.60869565 C5.21733696,4.05329594 4.05325372,5.2173913 2.60866848,5.2173913 C1.16408323,5.2173913 0,4.05329594 0,2.60869565 C0,1.16409536 1.16408323,0 2.60866848,0 Z"></path></clipPath><clipPath id="i2"><path d="M2.60866848,0 C4.04624118,0 5.21733696,1.16409536 5.21733696,2.60869565 C5.21733696,4.05329594 4.05325372,5.2173913 2.60866848,5.2173913 C1.16408323,5.2173913 0,4.05329594 0,2.60869565 C0,1.16409536 1.16408323,0 2.60866848,0 Z"></path></clipPath><clipPath id="i3"><path d="M3.19382567,0 C5.23998821,0 7.04453745,1.63711552 7.29370117,3.7298434 L8.64522551,11.7146427 L11.0387071,28.9429672 C11.1142113,29.6070801 11.7106941,30.1708038 12.2996265,30.1708038 L35.1169814,30.1708038 C35.8946742,30.1708038 36.5213587,30.81175 36.5213587,31.6071411 C36.5213587,32.4025321 35.8946742,33.0434783 35.1169814,33.0434783 L12.2996265,33.0434783 C10.2761152,33.0434783 8.49421717,31.4063627 8.2526039,29.3136349 L5.86667267,12.162533 L4.51514833,4.14684457 C4.43209377,3.44412045 3.80540931,2.87267447 3.20137608,2.87267447 L1.40437726,2.87267447 C0.626684504,2.87267447 0,2.2317283 0,1.43633724 C0,0.640946169 0.62668446,0 1.40437726,0 L3.19382567,0 Z"></path></clipPath><clipPath id="i4"><path d="M25.7170887,0 C26.7889486,0 27.777777,0.448072928 28.4948664,1.26067969 C29.3176321,2.1947978 29.6874992,3.50104424 29.5289847,4.86804633 L27.3173302,17.6039491 C27.0757843,19.5861021 25.3019317,21.1961268 23.2789849,21.1961268 L4.33272942,22.6011012 C4.29498781,22.6011012 4.25724625,22.6086957 4.22705303,22.6086957 C3.49486705,22.6086957 2.88345402,22.0467059 2.83061589,21.3024492 C2.77022941,20.5278147 3.35144922,19.8443137 4.12892503,19.7911525 L23.1808569,18.3785836 C23.8828496,18.3709892 24.4716177,17.8241883 24.5471008,17.1938485 L26.7587553,4.46554016 C26.8115935,3.99468388 26.6832722,3.47066644 26.4039848,3.15169927 C26.2228254,2.94664895 25.9963761,2.84032655 25.7321853,2.84032655 L1.40398549,2.84032655 C0.626509681,2.84032655 0,2.2099867 0,1.4277577 C0,0.645528702 0.634057941,0 1.40398549,0 L25.7170887,0 Z"></path></clipPath></defs><g transform="translate(-426.0 -31.0)"><g clip-path="url(#i0)"><g transform="translate(426.0 31.0)"><g transform="translate(8.0 8.0)"><g transform="translate(10.434673914175846 34.782608695652016)"><g clip-path="url(#i1)"><polygon points="0,0 5.21733696,0 5.21733696,5.2173913 0,5.2173913 0,0" stroke="none" fill="#227CF3"></polygon></g></g><g transform="translate(31.304021742527315 34.782608695652016)"><g clip-path="url(#i2)"><polygon points="0,0 5.21733696,0 5.21733696,5.2173913 0,5.2173913 0,0" stroke="none" fill="#227CF3"></polygon></g></g><g clip-path="url(#i3)"><polygon points="0,0 36.5213587,0 36.5213587,33.0434783 0,33.0434783 0,0" stroke="none" fill="#227CF3"></polygon></g><g transform="translate(10.434673914175848 5.217391304347984)"><g clip-path="url(#i4)"><polygon points="0,0 29.5649094,0 29.5649094,22.6086957 0,22.6086957 0,0" stroke="none" fill="#227CF3"></polygon></g></g></g></g></g></g></svg>