<?xml version="1.0" encoding="UTF-8"?><svg version="1.1" width="56px" height="56px" viewBox="0 0 56.0 56.0" xmlns="http://www.w3.org/2000/svg" xmlns:xlink="http://www.w3.org/1999/xlink"><defs><clipPath id="i0"><path d="M691,0 L691,135 L0,135 L0,0 L691,0 Z"></path></clipPath><clipPath id="i1"><path d="M21.8353298,0.650917028 L38.8779597,14.3990961 C40.1588615,15.4318232 40.3752239,17.3263682 39.3606842,18.6318225 C38.956815,19.1538427 38.3896471,19.5254486 37.7497843,19.6872768 L37.5916034,19.7218223 L37.5925125,35.1272737 C37.5925125,37.6572732 35.6970688,39.7500001 33.2234466,39.98 L33.0216295,39.9954546 L32.8107216,40 L7.18904984,40 C4.63906441,40 2.54180366,37.9627277 2.41180439,35.3418191 L2.40725895,35.1272737 L2.40634988,19.7218223 L2.30180503,19.7009132 C1.03635772,19.4090951 0.0790904573,18.2909135 0.00454540017,16.9327319 L0,16.7618229 C0,15.840914 0.412724901,14.9709142 1.12181176,14.398187 L18.1635326,0.650917028 C19.2336118,-0.216972343 20.7652506,-0.216972343 21.8353298,0.650917028 Z M19.8453412,2.78273479 L2.82089296,16.5545502 C2.76096634,16.6036544 2.72634786,16.6770747 2.72634786,16.7545502 C2.72634786,16.8963683 2.83816558,17.0109137 2.97634662,17.0109137 L3.77816022,17.0109137 C4.52542868,17.0100047 5.13087977,17.6290954 5.13087977,18.3918225 L5.13087977,35.1190919 L5.13360702,35.2636373 C5.18906124,36.3863644 6.09905605,37.2727278 7.2035952,37.2727278 L32.761631,37.2727278 L32.9034484,37.2690915 C34.0016239,37.2127278 34.8679826,36.282728 34.8679826,35.1545465 L34.8679826,18.3927317 C34.8679826,17.6290954 35.4734337,17.0109137 36.2207022,17.0109137 L37.0225158,17.0109137 C37.098879,17.0109137 37.1706967,16.9754592 37.2188783,16.9145501 C37.3042634,16.803394 37.2861686,16.6445614 37.1779694,16.5554593 L20.1544303,2.78273479 C20.0643369,2.70971876 19.9354346,2.70971876 19.8453412,2.78273479 Z M25.1125609,26.3678937 C25.4731918,26.3979038 25.807105,26.5700309 26.0407603,26.8463663 C26.5272678,27.4212452 26.4556339,28.2816704 25.8807612,28.7681841 C24.212589,30.180002 22.3907812,30.9090928 20.4544286,30.9090928 C18.518076,30.9090928 16.6962683,30.180002 15.0271869,28.7681841 C14.655308,28.4531409 14.4797503,27.9636328 14.5666448,27.4840529 C14.6535393,27.0044729 14.9896846,26.6076807 15.448458,26.443144 C15.9072314,26.2786072 16.4189343,26.3713231 16.7908131,26.6863664 C17.9844427,27.6981843 19.1926176,28.1818206 20.4544286,28.1818206 C21.7153305,28.1818206 22.9235054,27.6981843 24.118044,26.6863664 C24.3941596,26.4524519 24.7519301,26.3378835 25.1125609,26.3678937 Z"></path></clipPath></defs><g transform="translate(-104.0 -30.0)"><g clip-path="url(#i0)"><g transform="translate(104.0 30.0)"><g transform="translate(8.0 8.0)"><g clip-path="url(#i1)"><polygon points="0,0 40,0 40,40 0,40 0,0" stroke="none" fill="#959AAF"></polygon></g></g></g></g></g></svg>