<?xml version="1.0" encoding="UTF-8"?><svg version="1.1" width="56px" height="56px" viewBox="0 0 56.0 56.0" xmlns="http://www.w3.org/2000/svg" xmlns:xlink="http://www.w3.org/1999/xlink"><defs><clipPath id="i0"><path d="M691,0 L691,135 L0,135 L0,0 L691,0 Z"></path></clipPath><clipPath id="i1"><path d="M30.657014,24.4444358 C35.8142936,24.4444358 39.9995833,27.9311057 39.9995833,32.222216 C39.9995833,34.2863588 39.0149832,36.2658462 37.2626428,37.724686 C35.5103024,39.1835258 33.1339588,40.0020564 30.657014,39.9999961 L9.34256935,39.9999961 C4.18528974,39.9999961 0,36.5133262 0,32.222216 C0,30.1580731 0.98460011,28.1785857 2.73694054,26.7197459 C4.48928097,25.2609062 6.86562453,24.4423756 9.34256935,24.4444358 L30.657014,24.4444358 Z M30.657014,26.666656 L9.34256935,26.666656 C7.57286129,26.6645968 5.87478749,27.2490009 4.62253865,28.2910933 C3.37028981,29.3331857 2.66663889,30.7474427 2.66663889,32.222216 C2.66663889,35.2855487 5.65860772,37.7777759 9.34256935,37.7777759 L30.657014,37.7777759 C32.426722,37.7798351 34.1247959,37.1954311 35.3770447,36.1533386 C36.6292935,35.1112462 37.3329444,33.6969892 37.3329444,32.222216 C37.3329444,29.1588832 34.3409756,26.666656 30.657014,26.666656 Z M19.9997917,0 C26.6650556,0 31.9996667,5.00222125 31.9996667,11.111109 C31.9996667,17.2199967 26.6650556,22.2222179 19.9997917,22.2222179 C13.3345278,22.2222179 7.99991667,17.2199967 7.99991667,11.111109 C7.99991667,5.00222125 13.3345278,0 19.9997917,0 Z M19.9997917,2.22222179 C14.8825116,2.22222179 10.6665556,6.17444324 10.6665556,11.111109 C10.6665556,16.0477747 14.8825116,19.9999961 19.9997917,19.9999961 C25.1170717,19.9999961 29.3330278,16.0477747 29.3330278,11.111109 C29.3330278,6.17444324 25.1170717,2.22222179 19.9997917,2.22222179 Z"></path></clipPath></defs><g transform="translate(-534.0 -31.0)"><g clip-path="url(#i0)"><g transform="translate(534.0 31.0)"><g transform="translate(8.0 8.0)"><g clip-path="url(#i1)"><polygon points="0,0 39.9995833,0 39.9995833,40 0,40 0,0" stroke="none" fill="#227CF3"></polygon></g></g></g></g></g></svg>