<?xml version="1.0" encoding="UTF-8"?><svg version="1.1" width="12px" height="20px" viewBox="0 0 12.0 20.0" xmlns="http://www.w3.org/2000/svg" xmlns:xlink="http://www.w3.org/1999/xlink"><defs><clipPath id="i0"><path d="M750,0 L750,2198 L0,2198 L0,0 L750,0 Z"></path></clipPath><clipPath id="i1"><path d="M1.42414705,0 L12,9.61418287 L10.5761047,10.9090909 L0,1.29490804 L1.42414705,0 Z"></path></clipPath><clipPath id="i2"><path d="M10.5904928,0 L12,1.28182328 L1.4097564,10.9090909 L0,9.62772073 L10.5904928,0 Z"></path></clipPath></defs><g transform="translate(-690.0 -413.0)"><g clip-path="url(#i0)"><g transform="translate(24.0 385.0)"><g transform="translate(666.0 28.0)"><g clip-path="url(#i1)"><polygon points="0,0 12,0 12,10.9090909 0,10.9090909 0,0" stroke="none" fill="#D7D7D7"></polygon></g><g transform="translate(0.0 9.090909090909093)"><g clip-path="url(#i2)"><polygon points="0,0 12,0 12,10.9090909 0,10.9090909 0,0" stroke="none" fill="#D7D7D7"></polygon></g></g></g></g></g></g></svg>