<?xml version="1.0" encoding="UTF-8"?><svg version="1.1" width="32px" height="32px" viewBox="0 0 32.0 32.0" xmlns="http://www.w3.org/2000/svg" xmlns:xlink="http://www.w3.org/1999/xlink"><defs><clipPath id="i0"><path d="M750,0 L750,1624 L0,1624 L0,0 L750,0 Z"></path></clipPath><clipPath id="i1"><path d="M1.14285714,0 C1.77572966,0 2.28571429,0.522844931 2.28571429,1.17167662 L2.28571429,14.0601193 C2.28571429,14.7089509 1.77572962,15.2380952 1.14285714,15.2380952 C0.509984661,15.2380952 0,14.7152503 0,14.0664186 L0,1.17167662 C0,0.522844967 0.509984626,0 1.14285714,0 Z"></path></clipPath><clipPath id="i2"><path d="M1.14285716,0 C1.77572963,0 2.28571429,0.522844931 2.28571429,1.17167662 L2.28571429,14.0601193 C2.28571429,14.7089509 1.77572963,15.2380952 1.14285712,15.2380952 C0.509984654,15.2380952 0,14.7152503 0,14.0664186 L0,1.17167662 C0,0.522844967 0.509984654,0 1.14285716,0 Z"></path></clipPath><clipPath id="i3"><path d="M21.7408332,0 C23.6206566,0 25.1441736,1.46295078 25.1441736,3.26530612 L25.1441735,5.44217685 L30.8573622,5.44217685 C31.4901133,5.44217685 32,5.9278765 32,6.53061224 C32,7.13334797 31.4901132,7.61904762 30.8573622,7.61904762 L1.14263776,7.61904762 C0.509886728,7.61904762 0,7.13334797 0,6.53061224 C0,5.9278765 0.509886763,5.44217685 1.14263776,5.44217685 L6.85582647,5.44217685 L6.85582647,3.26530612 C6.85582647,1.46295078 8.3916299,0 10.2837397,0 Z M21.7408332,2.17687073 L10.2837397,2.17687073 C9.65713192,2.17687073 9.14110198,2.66842221 9.14110198,3.26530612 L9.14110198,5.44217685 L22.8588981,5.44217685 L22.8588981,3.26530612 C22.8588981,2.65671858 22.367441,2.17687073 21.7408332,2.17687073 Z"></path></clipPath><clipPath id="i4"><path d="M1.14255002,0 C1.77525246,0 2.28510004,0.518491585 2.28510004,1.16192093 L2.28510004,18.6094753 C2.28510004,19.2529046 2.80109035,19.7713963 3.42765006,19.7713963 L19.4294928,19.7713963 C20.0621952,19.7713963 20.5720429,19.2529047 20.5720429,18.6094753 L20.5720428,1.20564915 C20.5720428,0.562219836 21.0818904,0.0437282147 21.7145928,0.0437282147 C22.3472953,0.0437282147 22.8571429,0.5622198 22.8571429,1.20564915 L22.8571429,18.6094753 C22.8510001,20.5272695 21.3153146,22.0952381 19.4233501,22.0952381 L3.42765002,22.0952381 C1.5356855,22.0952381 0,20.5335164 0,18.6094753 L0,1.16192093 C0,0.518491621 0.509847576,0 1.14255002,0 Z"></path></clipPath></defs><g transform="translate(-688.0 -230.0)"><g clip-path="url(#i0)"><g transform="translate(688.0 230.0)"><g transform="translate(18.28571428571428 9.904761904761905)"><g clip-path="url(#i1)"><polygon points="0,0 2.28571429,0 2.28571429,15.2380952 0,15.2380952 0,0" stroke="none" fill="#666666"></polygon></g></g><g transform="translate(11.42857142857142 9.904761904761905)"><g clip-path="url(#i2)"><polygon points="0,0 2.28571429,0 2.28571429,15.2380952 0,15.2380952 0,0" stroke="none" fill="#666666"></polygon></g></g><g clip-path="url(#i3)"><polygon points="0,0 32,0 32,7.61904762 0,7.61904762 0,0" stroke="none" fill="#666666"></polygon></g><g transform="translate(4.571428571428569 9.904761904761903)"><g clip-path="url(#i4)"><polygon points="0,0 22.8571429,0 22.8571429,22.0952381 0,22.0952381 0,0" stroke="none" fill="#666666"></polygon></g></g></g></g></g></svg>