<?xml version="1.0" encoding="UTF-8"?><svg version="1.1" width="36px" height="40px" viewBox="0 0 36.0 40.0" xmlns="http://www.w3.org/2000/svg" xmlns:xlink="http://www.w3.org/1999/xlink"><defs><clipPath id="i0"><path d="M750,0 L750,1624 L0,1624 L0,0 L750,0 Z"></path></clipPath><clipPath id="i1"><path d="M18,0 C27.9256272,0 36,7.98736062 36,17.8772355 C36,17.9578398 35.9951186,18.0371897 35.985661,18.1149713 C35.9951186,18.243562 36,18.3734071 36,18.5045069 L36,23.5226782 C36,25.1996884 35.2000678,26.6841262 33.9708814,27.5955516 C32.3739865,31.6743819 29.2191215,34.901006 25.2433222,36.5216239 C25.1174905,37.6763899 24.3163743,38.6340064 23.2245765,38.934737 L19.6883392,39.9088895 C18.2287788,40.298142 16.7369693,39.404557 16.3466687,37.9072488 C15.9563681,36.4099406 16.8136319,34.869221 18.2669494,34.4560191 L21.8031867,33.4818666 C22.7270783,33.2268644 23.7134672,33.4848594 24.4064748,34.1627697 C27.0781954,33.0579573 29.3238983,31.0831314 30.7995255,28.5408496 L29.8983052,28.5408496 C27.2022713,28.5408496 25.0169493,26.294277 25.0169493,23.5226782 L25.0169493,18.5045069 C25.0169493,15.7329081 27.2022713,13.4863355 29.8983052,13.4863355 L31.1186441,13.4863355 C31.294678,13.4863355 31.4688814,13.4957446 31.6403391,13.5145627 C29.7747459,7.86284724 24.3823731,3.76362852 18,3.76362852 C11.6176275,3.76362852 6.22525471,7.86284724 4.35966152,13.5145627 C4.53111914,13.4957446 4.70532253,13.4863355 4.88135643,13.4863355 L6.10169539,13.4863355 C8.79772925,13.4863355 10.9830512,15.7329081 10.9830512,18.5045069 L10.9830512,23.5226782 C10.9830512,26.294277 8.79772925,28.5408496 6.10169539,28.5408496 L4.88135643,28.5408496 C2.18532257,28.5408496 0,26.294277 0,23.5226782 L0,18.5045069 C0,18.3734071 0.00488192803,18.243562 0.014339555,18.1149713 C0.00472881111,18.0361122 0,17.956711 0,17.8772355 C0,7.98736062 8.07437333,0 18,0 Z"></path></clipPath></defs><g transform="translate(-684.0 -112.0)"><g clip-path="url(#i0)"><g transform="translate(684.0 112.0)"><g clip-path="url(#i1)"><polygon points="0,0 36,0 36,40 0,40 0,0" stroke="none" fill="#FFFFFF"></polygon></g></g></g></g></svg>