<?xml version="1.0" encoding="UTF-8"?><svg version="1.1" width="38px" height="36px" viewBox="0 0 38.0 36.0" xmlns="http://www.w3.org/2000/svg" xmlns:xlink="http://www.w3.org/1999/xlink"><defs><clipPath id="i0"><path d="M750,0 L750,2198 L0,2198 L0,0 L750,0 Z"></path></clipPath><clipPath id="i1"><path d="M32.775,0 C35.660625,0 38,2.3959385 38,5.35133479 L38,25.7837039 C38,28.7391001 35.660625,31.1350386 32.775,31.1350386 L20.5846,31.1350386 L16.73425,35.5168089 C16.3936598,35.9043926 15.8770495,36.0764386 15.3790213,35.9681388 C14.8809931,35.8598391 14.4772093,35.4876469 14.3197713,34.9917635 C14.1623333,34.49588 14.2751598,33.9516418 14.61575,33.5640582 L18.89075,28.6992084 C19.1610126,28.3916852 19.5460201,28.2160994 19.95,28.2161288 L32.775,28.2161288 C33.4048891,28.2161288 34.0089797,27.9598562 34.4543786,27.503688 C34.8997775,27.0475199 35.15,26.4288231 35.15,25.7837039 L35.15,5.35133479 C35.15,4.70621559 34.8997775,4.08751879 34.4543786,3.63135062 C34.0089797,3.17518246 33.4048891,2.91890986 32.775,2.91890987 L5.22500003,2.91890987 C4.59511085,2.91890986 3.99102029,3.17518246 3.54562139,3.63135062 C3.10022248,4.08751879 2.84999999,4.70621559 2.85,5.35133479 L2.85,25.7837039 C2.85,26.4288231 3.1002225,27.0475199 3.5456214,27.503688 C3.99102031,27.9598562 4.59511086,28.2161288 5.22500003,28.2161288 L11.4,28.2161288 C12.1870058,28.2161288 12.825,28.869549 12.825,29.6755837 C12.825,30.4816184 12.1870058,31.1350386 11.4,31.1350386 L5.22500003,31.1350386 C2.33937503,31.1350386 0,28.7391001 0,25.7837039 L0,5.35133479 C0,2.39593855 2.33937498,0 5.22500003,0 L32.775,0 Z M19,17.9999442 C19.7870058,17.9999442 20.425,18.6533645 20.425,19.4593992 C20.425,20.2654339 19.7870058,20.9188541 19,20.9188541 L10.45,20.9188541 C9.66299424,20.9188541 9.02500001,20.2654339 9.02500001,19.4593992 C9.02500001,18.6533645 9.66299424,17.9999442 10.45,17.9999442 L19,17.9999442 Z M27.55,10.2161846 C28.3370058,10.2161846 28.975,10.8696048 28.975,11.6756395 C28.975,12.4816742 28.3370058,13.1350944 27.55,13.1350944 L10.45,13.1350944 C9.66299424,13.1350944 9.02500001,12.4816742 9.02500001,11.6756395 C9.02500001,10.8696048 9.66299424,10.2161846 10.45,10.2161846 L27.55,10.2161846 Z"></path></clipPath></defs><g transform="translate(-682.0 -114.0)"><g clip-path="url(#i0)"><g transform="translate(682.0 114.0)"><g clip-path="url(#i1)"><polygon points="0,0 38,0 38,36 0,36 0,0" stroke="none" fill="#FFFFFF"></polygon></g></g></g></g></svg>