<?xml version="1.0" encoding="UTF-8"?><svg version="1.1" width="57px" height="56px" viewBox="0 0 57.0 56.0" xmlns="http://www.w3.org/2000/svg" xmlns:xlink="http://www.w3.org/1999/xlink"><defs><clipPath id="i0"><path d="M750,0 L750,2198 L0,2198 L0,0 L750,0 Z"></path></clipPath><clipPath id="i1"><path d="M35.3992979,21.6610169 C36.2992801,21.6610169 36.8992682,22.2711864 36.8992682,23.1864407 L36.8992682,33.2542373 C36.8992682,34.779661 35.699292,36 33.8993277,36 L8.09983935,36 C6.5998691,36 5.09989885,35.0847458 5.09989885,33.2542373 L5.09989885,23.1864407 C5.09989885,22.2711864 5.69988695,21.6610169 6.29987505,21.6610169 C7.1998572,21.6610169 7.7998453,22.2711864 7.7998453,23.1864407 L7.7998453,33.2542373 L33.8993277,33.2542373 L33.8993277,23.1864407 C33.8993277,22.2711864 34.4993158,21.6610169 35.3992979,21.6610169 Z M34.1993217,0 C35.999286,0 37.1992622,1.22033898 37.7992503,2.44067797 L41.6991729,11.2881356 C41.999167,11.8983051 41.999167,12.8135593 41.999167,13.4237288 C41.999167,15.8644068 40.4991968,18 38.3992384,19.220339 C37.4992563,19.5254237 36.2992801,19.8305085 35.0993038,19.8305085 C32.9993455,19.8305085 29.3994169,18.6101695 28.1994407,17.0847458 L27.8994466,16.779661 L27.5994526,17.0847458 C25.4994942,19.220339 23.0995418,19.8305085 20.9995835,19.8305085 C18.8996252,19.8305085 16.7996668,19.220339 14.0997203,17.0847458 L13.7997263,16.779661 L13.4997323,17.0847458 C12.2997561,18.6101695 8.9998215,19.8305085 6.89986315,19.8305085 C5.999881,19.8305085 4.7999048,19.5254237 3.89992265,19.220339 L3.5999286,19.220339 C1.49997025,18 0,15.8644068 0,13.4237288 C0,12.8135593 0,11.8983051 0.29999405,11.2881356 L4.1999167,2.44067797 C4.7999048,0.915254237 5.999881,0 7.7998453,0 Z M33.9589456,2.74598616 L7.7998453,2.74576271 C6.89986315,2.74576271 6.89986315,3.05084746 6.5998691,3.66101695 L2.9999405,11.5932203 L2.91064186,11.7861477 C2.69994645,12.2749529 2.69994645,12.5762712 2.69994645,13.1186441 C2.69994645,14.9491525 3.29993455,16.1694915 4.7999048,17.0847458 L5.01060021,17.0952082 C5.59988893,17.1487759 6.39987307,17.3898305 7.1998572,17.3898305 C8.9998215,17.3898305 11.699768,16.4745763 12.5997501,14.9491525 L12.6084499,14.9403051 C12.6597489,14.8881356 12.9297436,14.6135593 13.1997382,14.3389831 L13.2139378,14.3318774 C13.3063477,14.2860345 13.8269985,14.0338983 14.0997204,14.0338983 C14.3997144,14.0338983 14.6997085,14.0338983 14.9997025,14.6440678 L15.0163202,14.6609675 C15.0792928,14.7250086 15.2996966,14.9491525 15.2996966,14.9491525 L15.4040084,15.1113817 C16.4124296,16.5601868 19.2639036,17.6949153 20.9995835,17.6949153 C22.7995478,17.6949153 25.7994883,16.4745763 26.6994705,14.9491525 C26.7030207,14.9040217 26.7456234,14.6440678 27.2994586,14.6440678 L27.3114375,14.5679732 C27.3973733,14.2902542 27.9244462,14.0338983 28.1994407,14.0338983 C28.4994348,14.0338983 28.7994288,14.3389831 29.0994229,14.6440678 C29.3994169,14.6440678 29.3994169,14.9491525 29.3994169,14.9491525 L29.5037288,15.1113817 C30.5121499,16.5601868 33.363624,17.6949153 35.0993039,17.6949153 C35.999286,17.6949153 36.8992682,17.3898305 37.4992563,17.0847458 C38.9992265,16.1694915 39.2992206,15.2542373 39.2992206,13.1186441 C39.2992206,12.5084746 39.2992206,12.2033898 38.9992265,11.5932203 L35.0993039,3.66101695 C34.7993098,2.74576271 34.1993217,2.74576271 33.8993277,2.74576271 Z M31.7993693,6.71186441 C32.3993574,6.71186441 32.9993455,7.3220339 32.9993455,7.93220339 C32.9993455,8.54237288 32.6993514,9.45762712 31.7993693,9.45762712 L9.89980365,9.45762712 C9.29981555,9.45762712 8.69982745,8.84745763 8.69982745,7.93220339 C8.69982745,7.01694915 9.29981555,6.71186441 9.89980365,6.71186441 L31.7993693,6.71186441 Z"></path></clipPath></defs><g transform="translate(-441.0 -2078.0)"><g clip-path="url(#i0)"><g transform="translate(0.0 2066.0)"><g transform="translate(439.33354166232635 12.0)"><g transform="translate(1.9999166684027614 0.0)"><g transform="translate(7.000083331597239 10.0)"><g clip-path="url(#i1)"><polygon points="0,0 41.999167,0 41.999167,36 0,36 0,0" stroke="none" fill="#959AAF"></polygon></g></g></g></g></g></g></g></svg>