<?xml version="1.0" encoding="UTF-8"?><svg version="1.1" width="54px" height="63px" viewBox="0 0 54.0 63.0" xmlns="http://www.w3.org/2000/svg" xmlns:xlink="http://www.w3.org/1999/xlink"><defs><clipPath id="i0"><path d="M750,0 L750,2198 L0,2198 L0,0 L750,0 Z"></path></clipPath><clipPath id="i1"><path d="M26.9993625,0 L30.3755578,1.97096411 L10.1247609,13.7838667 L10.1247609,17.7193538 L20.2495219,11.8129026 L37.1253984,21.6574174 L37.1253984,17.7193538 L23.6244422,9.84451488 L33.7504781,3.93806359 L54,15.7496779 L54,19.6877415 L33.7504781,7.87612719 L30.3755578,9.84451488 L40.5003187,15.7496779 L40.5003187,35.4348431 L43.8752391,33.4651672 L43.8752391,17.7193538 L54,23.6245169 L54,47.2503221 L50.6250797,49.2187097 L50.6250797,25.5941928 L47.2501594,23.6245169 L47.2501594,35.4387077 L30.3755578,45.2819344 L33.7504781,47.2503221 L47.2501594,39.3754831 L47.2501594,51.1870974 L26.9993625,63 L23.6244422,61.0316123 L43.8752391,49.2187097 L43.8752391,45.2819344 L33.7504781,51.1870974 L16.8746016,41.3438708 L16.8746016,45.285799 L30.3755578,53.1593498 L20.2495219,59.0670893 L0,47.2541867 L0,43.3161231 L20.2495219,55.125161 L23.6244422,53.1567733 L13.4996813,47.2503221 L13.4996813,27.5677334 L10.1247609,29.5309682 L10.1247609,45.2819344 L0,39.3754831 L0,15.7496779 L3.37492031,13.7838667 L3.37492031,37.4058072 L6.74984063,39.3806359 L6.74984063,27.5677334 L23.6244422,17.7193538 L20.2495219,15.7496779 L6.74984063,23.6245169 L6.74984063,11.8129026 L26.9993625,0 Z M27.7493861,19.5 L18,25.1253067 L18,36.3746933 L26.1975382,41.1043677 L27.7493861,42 L37.5,36.3746933 L37.5,25.1253067 L27.7493861,19.5 Z"></path></clipPath></defs><g transform="translate(-32.0 -101.0)"><g clip-path="url(#i0)"><g transform="translate(32.0 101.0)"><g clip-path="url(#i1)"><polygon points="0,0 54,0 54,63 0,63 0,0" stroke="none" fill="#FFFFFF"></polygon></g></g></g></g></svg>