<?xml version="1.0" encoding="UTF-8"?><svg version="1.1" width="56px" height="56px" viewBox="0 0 56.0 56.0" xmlns="http://www.w3.org/2000/svg" xmlns:xlink="http://www.w3.org/1999/xlink"><defs><clipPath id="i0"><path d="M691,0 L691,135 L0,135 L0,0 L691,0 Z"></path></clipPath><clipPath id="i1"><path d="M19,0 C24.5733333,0 29.64,4.75 29.64,10.25 L29.64,11.5 L33.44,11.5 C35.9733333,11.5 38,13.75 38,16.25 L38,35.25 C38,38 35.9733333,40 33.44,40 L4.56,40 C2.02666667,40 0,37.75 0,35.25 L0,16.25 C0,13.5 2.02666667,11.5 4.56,11.5 L8.36,11.5 C8.36,5 13.1733333,0 19,0 Z M33.44,14 L4.56,14 C3.54666667,14 2.53333333,15 2.53333333,16.25 L2.53333333,35.25 C2.53333333,36.5 3.54666667,37.5 4.56,37.5 L33.44,37.5 C34.4533333,37.5 35.4666667,36.5 35.4666667,35.25 L35.4666667,16.25 C35.4666667,15 34.4533333,14 33.44,14 Z M19,2.5 C14.5229091,2.5 11.022638,6.35586777 10.8968355,11.2282825 L10.8933333,11.5 L27.1066667,11.5 L27.1066667,10.25 C27.1066667,6.75 23.8133333,2.5 19,2.5 Z"></path></clipPath><clipPath id="i2"><path d="M14.48542,7.31215166 C15.0398113,7.31215166 15.4873319,7.76188926 15.4873319,8.31902689 L15.4873319,17.716529 C15.4873319,18.2714292 15.0375848,18.7234043 14.48542,18.7234043 C13.9310287,18.7234043 13.4835081,18.2736667 13.4835081,17.716529 L13.4835081,8.31902689 C13.4835081,7.76188926 13.9310287,7.31215166 14.48542,7.31215166 Z M7.81713951,10.4513649 C8.37153078,10.4513649 8.81905144,10.9011025 8.81905144,11.4582401 L8.81905144,17.716529 C8.81905144,18.2726109 8.37048019,18.7234043 7.81713951,18.7234043 C7.26274824,18.7234043 6.81522758,18.2736667 6.81522758,17.716529 L6.81522758,11.4582401 C6.81522758,10.9011025 7.26274824,10.4513649 7.81713951,10.4513649 Z M1.00191193,11.2814776 C1.55630319,11.2814776 2.00382386,11.7312152 2.00382386,12.2883528 L2.00382386,17.716529 C2.00382386,18.2726109 1.55525261,18.7234043 1.00191193,18.7234043 C0.447520661,18.7234043 0,18.2736667 0,17.716529 L0,12.2883528 C0,11.7312152 0.447520661,11.2814776 1.00191193,11.2814776 Z M15.407179,0 C15.9615702,0 16.4090909,0.449737602 16.4090909,1.00687523 L16.4090909,5.81078882 C16.4090909,6.36792645 15.9615702,6.81766405 15.407179,6.81766405 C14.8527877,6.81766405 14.4052671,6.36792645 14.4052671,5.81078882 L14.4052671,2.01375046 L10.6269458,2.01375046 C10.0725546,2.01375046 9.62503392,1.56401286 9.62503392,1.00687523 C9.62503392,0.449737602 10.0725546,0 10.6269458,0 L15.407179,0 Z"></path></clipPath><clipPath id="i3"><path d="M16.007474,0.184986813 C16.217596,0.334288596 16.3579821,0.558775491 16.3976444,0.808895657 C16.4373066,1.05901582 16.3729839,1.31420355 16.2188743,1.51813028 C10.9491224,8.52296202 3.92060702,9.13336793 1.63443257,9.13336793 C1.21163196,9.13336793 0.950105805,9.11217328 0.891262421,9.10793435 C0.352954425,9.05918666 -0.0458729569,8.59502383 0.00425288892,8.07151598 C0.0538870383,7.54814831 0.529461968,7.1624161 1.06779257,7.20889373 C1.39252088,7.23644678 9.06613406,7.79386607 14.6366411,0.390574915 C14.7901638,0.186229967 15.0209972,0.0497036075 15.2781885,0.0111318172 C15.5353799,-0.0274399731 15.797782,0.0351143064 16.007474,0.184986813 Z"></path></clipPath></defs><g transform="translate(-204.0 -31.0)"><g clip-path="url(#i0)"><g transform="translate(204.0 31.0)"><g transform="translate(9.0 8.0)"><g clip-path="url(#i1)"><polygon points="0,0 38,0 38,40 0,40 0,0" stroke="none" fill="#227CF3"></polygon></g><g transform="translate(11.227272727272728 17.02127659574468)"><g clip-path="url(#i2)"><polygon points="0,0 16.4090909,0 16.4090909,18.7234043 0,18.7234043 0,0" stroke="none" fill="#227CF3"></polygon></g><g transform="translate(0.0 0.22833419823558554)"><g clip-path="url(#i3)"><polygon points="-1.11022302e-15,1.17961196e-16 16.4090909,1.17961196e-16 16.4090909,9.13336793 -1.11022302e-15,9.13336793 -1.11022302e-15,1.17961196e-16" stroke="none" fill="#227CF3"></polygon></g></g></g></g></g></g></g></svg>